<?xml version="1.0" encoding="utf-8"?><svg xmlns="http://www.w3.org/2000/svg" xmlns:xlink="http://www.w3.org/1999/xlink" width="718" height="768" preserveAspectRatio="xMidYMid" viewBox="0 0 718 768" style="z-index:1;margin-right:-2px;display:block;background-repeat-y:initial;background-repeat-x:initial;background-color:rgb(255, 255, 255);animation-play-state:paused" ><g transform="translate(359,384) scale(1,1) translate(-359,-384)" style="transform:matrix(1, 0, 0, 1, 0, 0);animation-play-state:paused" ><linearGradient id="lg-0.9556111755088186" x1="0" x2="1" y1="0" y2="0" style="animation-play-state:paused" ><stop stop-color="#ff00ff" offset="0" style="animation-play-state:paused" ></stop>

  
<stop stop-color="#00ffff" offset="1" style="animation-play-state:paused" ></stop></linearGradient>
<path d="M 0 0 L 0 693.635 Q 71.8 687.116 143.6 648.019 T 287.2 584.981 T 430.8 406.416 T 574.4 375.198 T 718 356.951 L 718 0 Z" fill="url(#lg-0.9556111755088186)" opacity="0.4" style="opacity:0.4;animation-play-state:paused" ></path>
<path d="M 0 0 L 0 756.751 Q 71.8 686.715 143.6 657.259 T 287.2 505.771 T 430.8 487.738 T 574.4 349.76 T 718 337.111 L 718 0 Z" fill="url(#lg-0.9556111755088186)" opacity="0.4" style="opacity:0.4;animation-play-state:paused" ></path>
<path d="M 0 0 L 0 722.069 Q 71.8 608.769 143.6 578.654 T 287.2 501.94 T 430.8 463.707 T 574.4 403.131 T 718 328.263 L 718 0 Z" fill="url(#lg-0.9556111755088186)" opacity="0.4" style="opacity:0.4;animation-play-state:paused" ></path>
<path d="M 0 0 L 0 665.962 Q 71.8 608.927 143.6 570.5 T 287.2 573.867 T 430.8 519.653 T 574.4 360.362 T 718 340.008 L 718 0 Z" fill="url(#lg-0.9556111755088186)" opacity="0.4" style="opacity:0.4;animation-play-state:paused" ></path>
<path d="M 0 0 L 0 678.589 Q 71.8 658.747 143.6 623.781 T 287.2 567.169 T 430.8 500.016 T 574.4 389.811 T 718 368.817 L 718 0 Z" fill="url(#lg-0.9556111755088186)" opacity="0.4" style="opacity:0.4;animation-play-state:paused" ></path></g></svg>